Patient4_TMGait_0pt8_01_left_05_EMG.mot
version=1
nRows=24
nColumns=33
inDegrees=no
endheader
time	1LAddLong	2LGlutMax	3LGlutMed	4LIliopsoas	5LSemiMemb	6LBicFemLong	7LRecFem	8LVastMed	9LVastLat	10LGasMed	11LTibAnt	12lTibPost	13LPeroneusLong	14LSol	15LExtDigLong	16LFlexDigLong	17RAddLong	18RGlutMax	19RGlutMed	20RIliopsoas	21RSemiMemb	22RBicFemLong	23RRecFem	24RVastMed	25RVastLat	26RGasMed	27RTibAnt	28RTibPost	29RPeroneusLong	30RSol	31RExtDigLong	32RFlexDigLong
5.127	-0.021057	0.54275	0.056458	0.003357	-0.079193	0.18265	0.31586	0.03067	-0.34485	-0.26352	0.036926	-0.064545	0.039215	-0.3392	0.099792	0.36728	-0.028076	-0.001373	-0.16449	-0.15152	0.084076	0.19272	0.58334	0.043945	-0.00946	-0.002747	-0.067139	-0.00351	-0.085602	0.032959	0.014801	-0.020142
5.128	-0.021515	0.6282	0.085907	0.005493	-0.14526	0.16342	0.36453	0.027008	-0.31342	-0.087738	0.13397	-0.041504	0.00061	-0.57556	0.073853	-0.26672	0.009918	0.032349	-0.11948	-0.26611	0.1622	0.14358	0.68146	0.068359	-0.029755	0.005493	0.11688	-0.009003	-0.26474	-0.11032	0.015717	-0.02533
5.129	-0.003204	0.62302	0.08728	-0.025024	-0.12894	0.029602	0.29205	0.023651	-0.26291	-0.0354	0.15747	0.00946	0.002289	-1.059	0.007172	-0.336	0.049438	0.013885	-0.080872	-0.31113	0.20279	0.089264	0.76691	0.053711	-0.062561	-0.002594	0.35812	-0.005035	-0.34622	-0.097656	0.014954	-0.016785
5.13	0.018158	0.60806	0.14984	-0.016022	-0.055389	-0.11673	0.15656	0.017395	-0.242	-0.09903	0.16754	0.00351	-0.066223	-0.87952	0.012512	-0.18021	0.079041	0.082397	-0.059814	-0.42969	0.2179	-0.079193	0.81558	0.051422	-0.074158	-0.008392	0.52338	-0.005646	-0.26077	0.051422	0.012665	-0.020142
5.131	0.030823	0.5455	-0.014038	-0.005798	0.070648	-0.15961	-0.096893	0.002899	-0.23926	-0.1622	-0.068665	0.025787	-0.067139	-0.77484	0.075836	0.40176	0.12329	0.035095	0.003967	-0.45227	0.19424	-0.19486	0.83969	-0.055084	-0.085602	-0.010223	0.50323	-0.010986	-0.12573	0.14771	0.011444	-0.010681
5.132	0.013885	0.49789	-0.15518	0.004272	0.080719	-0.14145	-0.66528	0.009766	-0.25116	-0.09613	-0.07843	0.13382	-0.018463	-0.7016	0.27817	-0.64972	0.16998	0.015259	-0.10101	-0.25345	0.1413	-0.20218	0.85022	-0.075836	-0.078583	0.000916	0.51758	-0.00885	0.091095	0.098877	0.00946	-0.015106
5.133	-0.005493	0.51071	-0.22873	0.001373	0.063629	-0.25131	-1.4273	0.010834	-0.27847	-0.12177	-0.00946	0.041351	-0.11932	-0.3302	0.43945	0.46906	0.19073	0.016479	-0.112	-0.078888	0.099182	-0.16953	0.80505	-0.064392	-0.074768	-0.007629	-0.1767	-0.00061	-0.076752	0.11765	0.014191	-0.013428
5.134	-0.013123	0.53558	-0.16403	-0.010376	0.007629	-0.31174	-1.8169	0.016937	-0.31387	-0.007477	-0.005951	-0.036621	-0.18784	-0.19501	0.56244	-0.1181	0.25314	-0.009766	-0.19913	0.062561	0.054016	-0.19806	0.81009	-0.085602	-0.063934	-0.007782	-0.19211	-0.011749	-0.21729	0.096741	0.002747	-0.017395
5.135	-0.021057	0.47409	-0.1799	-0.007172	-0.041656	-0.17944	-1.9083	0.020447	-0.31387	-0.010681	0.049896	0.36591	-0.095215	-0.07309	0.014343	-0.37369	0.28702	0.008087	-0.07431	0.30319	0.11475	-0.21668	0.89935	-0.10727	-0.079956	0.003052	-0.10147	-0.009308	-0.097504	0.031281	0.007477	-0.007782
5.136	-0.012207	0.4451	-0.22263	-0.01709	-0.030975	-0.070343	-1.819	0.023651	-0.22827	-0.015717	0.055084	-0.094452	-0.010071	0.44571	0.006714	0.46997	0.28412	-0.047455	-0.38238	0.44556	0.10025	-0.18295	0.95474	-0.12054	-0.09079	0.01236	0.27176	-0.00885	-0.006561	-0.016785	0.010986	-0.008698
5.137	0.003967	0.38528	-0.21805	0.003967	0.002899	-0.052643	-1.6241	0.022125	-0.24796	-0.39856	-0.06134	-0.31662	0.15762	0.96603	-0.1004	-0.005035	0.25482	-0.14252	-0.51163	0.35172	0.036926	-0.096741	0.93307	-0.087128	-0.066833	0.016327	-0.90607	-0.00946	0.10574	-0.043182	0.013428	-0.009918
5.138	0.012665	0.41428	-0.18463	0.019989	0.003967	-0.057831	-1.2645	0.010223	-0.25421	-0.54886	-0.13443	-0.044098	0.1413	0.26611	-0.13412	-0.072479	0.13245	-0.21866	-0.45853	0.28168	0.031128	0.023041	0.91553	-0.066071	-0.079041	0.012665	-1.474	-0.009308	0.10407	0.095367	0.013123	-0.00885
5.139	0.014496	0.44037	-0.13214	0.01297	0.00473	-0.049286	-0.67658	-0.003815	-0.27802	0.12161	-0.11185	0.034943	0.090179	-0.067139	-0.42191	-0.010529	0.090027	-0.31097	-0.41077	0.21011	0.092468	0.12985	0.90347	-0.076447	-0.068512	-0.007019	-0.896	-0.006409	0.003052	0.12299	0.014191	-0.018311
5.14	0.012817	0.39093	-0.11627	0.005646	0.003967	-0.045166	0.27451	-0.001526	-0.26337	0.44571	-0.062866	-0.092316	0.094299	-0.29968	-0.32135	-0.32638	-0.023499	-0.33966	-0.30807	0.10147	0.040283	0.081329	0.90546	-0.12039	-0.060577	-0.011597	0.19196	-0.00946	-0.11368	0.15595	0.013885	-0.016937
5.141	0.014954	0.43427	-0.074158	0.026703	0.003815	-0.050812	1.7462	0.001831	-0.25635	0.22064	-0.018921	-0.062714	0.049744	-0.29724	-0.24429	0.19363	-0.081635	-0.34821	-0.16449	-0.054626	0.039368	-0.018005	0.86578	-0.12314	-0.057831	-0.010376	0.59586	-0.008392	-0.23331	0.121	0.014801	-0.018921
5.142	0.021057	0.52841	-0.065918	0.015869	0.003357	-0.16708	2.1947	0.007782	-0.25482	0.041199	-0.00061	0.050049	-0.016632	-0.52155	-0.2385	0.18478	-0.12528	-0.33432	-0.15564	-0.078583	0.045013	-0.068665	0.88333	-0.058441	-0.039215	-0.004578	0.72372	-0.011749	-0.18951	-0.023956	0.006561	-0.015564
5.143	0.00946	0.61996	-0.0383	-0.014954	0.001831	-0.13443	1.8988	0.006256	-0.33157	0.13458	0.020905	-0.095673	-0.028381	-0.021362	-0.1564	0.16068	-0.081177	-0.38116	-0.24979	-0.066223	-0.017548	-0.021057	0.86273	-0.013428	-0.03479	-0.000916	1.0379	-0.00824	-0.011749	-0.010223	0.007019	-0.021057
5.144	0.005798	0.75638	0.01358	0.006409	0	-0.032043	1.5225	0.020752	-0.40146	0.16052	0.031891	-0.034027	-0.00824	-0.34027	-0.093536	0.11932	-0.055847	-0.39917	-0.1326	-0.079041	-0.016174	-0.067596	0.85556	-0.006866	-0.021667	-0.00061	0.88409	-0.010223	-0.12558	0.057678	0.009308	-0.020599
5.145	0.006561	0.87296	0.052338	0.013885	0.002136	0.13565	1.1559	0.019073	-0.39658	-0.27847	0.003662	-0.000153	-0.049286	-1.3402	-0.06897	0.031586	-0.026855	-0.44235	-0.076447	-0.064392	0.019684	-0.047607	0.84366	0.082703	0.012512	-0.002747	0.58044	-0.009918	-0.10284	-0.010681	0.010071	-0.022583
5.146	0.00824	0.96786	0.061493	0.007019	0.006866	0.20157	0.83893	0.0177	-0.41275	-0.47699	0.036163	0.49484	-0.071106	-0.64697	0.12116	0.076294	0.000305	-0.40939	-0.024109	-0.009918	0.021362	0.039368	0.86777	0.090027	0.025177	0.0177	-0.1297	-0.00473	0.058899	-0.029907	0.00061	-0.011902
5.147	0.006256	1.1139	0.14557	0.000305	-0.013123	0.17105	0.58502	0.003357	-0.33447	-0.12726	0.010071	-0.19318	-0.04776	-0.28595	0.17685	0.041962	-0.062866	-0.4361	-0.19562	-0.004425	0.032043	0.17273	0.90744	0.033264	0.00061	0.015106	-0.57648	-0.005035	0.000763	0.035706	0.003204	-0.013885
5.148	0.002441	1.255	0.11429	0.00351	-0.084534	0.10208	0.35996	0.000305	-0.11169	0.26032	0.003815	0.12314	-0.012817	-0.17395	0.069885	-0.21194	-0.11475	-0.4602	-0.69138	-0.018768	0.040436	0.20706	0.93277	-0.061493	-0.015717	0.00824	-0.73669	-0.005493	-0.10696	0.056152	0.009003	-0.011902
5.149	0.007172	1.5674	0.097351	-0.002594	-0.14969	0.069885	0.22903	0	-0.037689	0.82275	-0.00824	0.23651	-0.029144	0.18814	0.14832	0.19363	-0.12009	-0.5069	-0.54565	-0.059662	0.012207	0.045013	0.91095	-0.079803	-0.022888	0.020142	-0.87357	-0.004425	0.14252	0.054169	0.003204	-0.011292
5.15	0.002136	1.7207	0.036926	-0.020142	-0.10117	-0.07431	0.19424	0	-0.079956	1.4055	0.027313	-0.057068	-0.048523	0.003662	0.36484	0.10208	-0.08606	-0.5571	-0.40222	-0.076752	-0.045776	-0.001373	0.85525	-0.084076	-0.01709	0.020905	-0.3038	-0.00885	0.12238	0.057526	0.006409	-0.01358
